<svg width="104" height="96" xmlns="http://www.w3.org/2000/svg" xmlns:xlink="http://www.w3.org/1999/xlink" xml:space="preserve" overflow="hidden"><g transform="translate(-90 -170)"><g><g><g><path d="M118.231 74.6862C118.231 80.5506 113.477 85.3047 107.612 85.3047 101.748 85.3047 96.9939 80.5506 96.9939 74.6862 96.9939 68.8218 101.748 64.0677 107.612 64.0677 113.477 64.0677 118.231 68.8218 118.231 74.6862Z" stroke="#385A80" stroke-width="1.78462" stroke-linecap="butt" stroke-linejoin="miter" stroke-miterlimit="10" stroke-opacity="1" fill="none" fill-rule="nonzero" transform="matrix(1.00043 0 0 1 -0.528378 110.082)"/><path d="M143.394 89.9447C143.394 95.8091 138.64 100.563 132.775 100.563 126.911 100.563 122.157 95.8091 122.157 89.9447 122.157 84.0803 126.911 79.3262 132.775 79.3262 138.64 79.3262 143.394 84.0803 143.394 89.9447Z" stroke="#5387BF" stroke-width="1.78462" stroke-linecap="butt" stroke-linejoin="miter" stroke-miterlimit="10" stroke-opacity="1" fill="none" fill-rule="nonzero" transform="matrix(1.00043 0 0 1 -0.528378 110.082)"/><path d="M162.132 113.502C162.132 119.366 157.378 124.12 151.514 124.12 145.65 124.12 140.895 119.366 140.895 113.502 140.895 107.637 145.65 102.883 151.514 102.883 157.378 102.883 162.132 107.637 162.132 113.502Z" stroke="#6FB4FF" stroke-width="1.78462" stroke-linecap="butt" stroke-linejoin="miter" stroke-miterlimit="10" stroke-opacity="1" fill="none" fill-rule="nonzero" transform="matrix(1.00043 0 0 1 -0.528378 110.082)"/><path d="M169.985 141.877C169.985 147.741 165.231 152.495 159.366 152.495 153.502 152.495 148.748 147.741 148.748 141.877 148.748 136.013 153.502 131.259 159.366 131.259 165.231 131.259 169.985 136.013 169.985 141.877Z" stroke="#8CC3FF" stroke-width="1.78462" stroke-linecap="butt" stroke-linejoin="miter" stroke-miterlimit="10" stroke-opacity="1" fill="none" fill-rule="nonzero" transform="matrix(1.00043 0 0 1 -0.528378 110.082)"/><path d="M99.6708 76.2924 102.794 68.1724 102.794 79.0585 104.489 73.1693 105.025 75.9354 106.72 70.0462 108.326 82.0924 109.308 75.8462 111.895 75.757 112.877 79.237 114.84 70.7601 116.268 75.757" stroke="#000000" stroke-width="0.446154" stroke-linecap="butt" stroke-linejoin="miter" stroke-miterlimit="10" stroke-opacity="1" fill="none" fill-rule="nonzero" transform="matrix(1.00043 0 0 1 -0.528378 110.082)"/><path d="M124.12 91.2831C124.12 91.2831 126.797 92.4431 128.314 91.9078 129.831 91.3724 131.259 82.9847 131.259 82.9847 131.259 82.9847 130.902 90.3016 133.043 91.7293 135.185 93.157 141.252 91.3724 141.252 91.3724" stroke="#000000" stroke-width="0.446154" stroke-linecap="butt" stroke-linejoin="miter" stroke-miterlimit="10" stroke-opacity="1" fill="none" fill-rule="nonzero" transform="matrix(1.00043 0 0 1 -0.528378 110.082)"/><path d="M142.948 116.357C142.948 116.357 144.375 112.52 146.963 111.449 149.551 110.379 150.354 114.126 152.942 114.215 155.529 114.305 160.169 111.271 160.169 111.271" stroke="#000000" stroke-width="0.446154" stroke-linecap="butt" stroke-linejoin="miter" stroke-miterlimit="10" stroke-opacity="1" fill="none" fill-rule="nonzero" transform="matrix(1.00043 0 0 1 -0.528378 110.082)"/><path d="M151.246 140.36C151.246 140.36 153.299 144.465 159.545 144.732 165.791 145 168.379 142.145 168.379 142.145" stroke="#000000" stroke-width="0.446154" stroke-linecap="butt" stroke-linejoin="miter" stroke-miterlimit="10" stroke-opacity="1" fill="none" fill-rule="nonzero" transform="matrix(1.00043 0 0 1 -0.528378 110.082)"/><path d="M172.394 140.36C172.394 140.36 182.656 133.311 185.422 126.529 188.188 119.748 180.782 107.166 181.852 97.5293 182.923 87.9816 187.206 85.3939 187.206 85.3939L187.206 84.7693C187.206 84.7693 180.782 87.7139 180.068 99.3139 179.622 107.702 186.225 119.034 182.299 126.619 178.372 134.203 172.394 140.36 172.394 140.36Z" fill="#8CC3FF" fill-rule="nonzero" fill-opacity="1" transform="matrix(1.00043 0 0 1 -0.528378 110.082)"/><path d="M164.72 110.914C164.72 110.914 166.683 101.277 172.394 94.9416 178.105 88.6062 187.206 84.1447 187.206 84.1447L187.206 83.2524C187.206 83.2524 177.659 87.1785 172.126 93.5139 166.683 99.7601 164.72 110.914 164.72 110.914Z" fill="#6FB4FF" fill-rule="nonzero" fill-opacity="1" transform="matrix(1.00043 0 0 1 -0.528378 110.082)"/><path d="M145.446 88.3385C145.446 88.3385 156.422 85.9293 165.702 84.9478 174.982 83.877 187.206 82.5385 187.206 82.5385L187.206 81.2001C187.206 81.2001 168.914 82.3601 160.348 84.2339 151.692 86.1078 145.446 88.3385 145.446 88.3385Z" fill="#5387BF" fill-rule="nonzero" fill-opacity="1" transform="matrix(1.00043 0 0 1 -0.528378 110.082)"/><path d="M120.283 71.5631C120.283 71.5631 143.572 66.2093 157.939 68.9754 172.305 71.7416 171.502 74.6862 177.123 76.4708 182.745 78.2554 187.206 78.3447 187.206 78.3447L187.206 79.5047C187.206 79.5047 180.782 79.5939 175.071 77.7201 169.449 75.9354 165.969 70.8493 154.369 69.6001 142.769 68.3508 120.283 71.5631 120.283 71.5631Z" fill="#385A80" fill-rule="nonzero" fill-opacity="1" transform="matrix(1.00043 0 0 1 -0.528378 110.082)"/></g></g></g></g></svg>