<?xml version="1.0" encoding="utf-8"?>
<!-- Generator: Adobe Illustrator 28.3.0, SVG Export Plug-In . SVG Version: 6.00 Build 0)  -->
<svg version="1.1" id="Layer_1" xmlns="http://www.w3.org/2000/svg" xmlns:xlink="http://www.w3.org/1999/xlink" x="0px" y="0px"
	 viewBox="0 0 108 108" style="enable-background:new 0 0 108 108;" xml:space="preserve">
<style type="text/css">
	.st0{fill:#6D6E71;fill-opacity:0.4;}
	.st1{fill:#B03B96;fill-opacity:0.4;}
	.st2{fill:#FAA61E;fill-opacity:0.4;}
	.st3{fill:#38C7E8;fill-opacity:0.7;stroke:#58595B;stroke-width:0.25;stroke-miterlimit:10;}
	.st4{fill:#918AE1;fill-opacity:0.72;stroke:#58595B;stroke-width:0.25;stroke-miterlimit:10;}
	.st5{fill:#FC827F;fill-opacity:0.53;stroke:#58595B;stroke-width:0.25;stroke-miterlimit:10;}
	.st6{fill:#13D6B0;fill-opacity:0.31;stroke:#58595B;stroke-width:0.25;stroke-miterlimit:10;}
	.st7{fill:none;stroke:#58595B;stroke-width:0.5;stroke-miterlimit:10;}
</style>
<path class="st0" d="M3.1,36.3V13h60.7v23.3H3.1z"/>
<path class="st1" d="M3.1,64.5V54.1h60.7v10.3H3.1z"/>
<path class="st2" d="M3.1,104.3V81h60.7v23.3H3.1z"/>
<path class="st3" d="M58.3,100.9c2.3,0.5,4.3,0.9,5.7,1.2V5c-0.9,0-2,0-3.4,0c-23.2,0.3-48,6.2-47.9,10.8c0.2,5.9,44,8.4,44,15.8
	c0,3-7.1,4-7.4,8.7c-0.6,6.1,10.7,9,10.6,14.3c-0.3,7.9-26.1,10.9-25.9,15.7c0.2,4.7,25,5.8,25.2,9.1c0.2,4.9-52,9.1-51.7,12.8
	C7.4,94.4,25.6,94.3,58.3,100.9z"/>
<path class="st4" d="M61.2,6.1C62.3,5.4,63.4,5.1,64,5v97.2c-0.8,0-1.7,0.2-2.8,0c-6.3-0.5-13.7-4.4-16-10
	c-2.5-6.2,3.5-8.8,2.6-18.1c-0.9-8.2-5.8-9.1-5.4-15.1C43.3,50.5,54,50.6,57.1,41c3.1-9.9-6.1-17.5-2.5-26.9
	C55.2,12.7,56.9,8.5,61.2,6.1z"/>
<path class="st5" d="M60,5.6c1.5-0.2,3.3-0.9,4-0.6v97.2c-1.1,0.2-2.8,0.3-4.5,0.3c-11.4,0.8-22.1,0.2-22.1-0.9
	c-0.2-1.4,16.9-1.1,18.4-7c0.9-3.5-4.6-5.9-4.8-12c-0.2-4.4,2.6-6.5,4.9-10.8c6.1-10.8,6.1-27.2-1.1-33.9
	c-4.8-4.4-11.7-3.5-11.7-5.9c-0.2-3.2,13.4-4.1,14.7-10.3c1.1-5-6.8-8.2-4.8-12.3C54.3,7,57.5,5.7,60,5.6z"/>
<path class="st6" d="M60.8,6c0.9-0.7,2.6-1.5,3.2-1v97.2c-1.4,0.3-3.4,0.5-4.9-0.6C55.4,99,58.1,91.2,58.3,86
	C58.9,66.9,25,55.6,27.5,46.2c2.1-7.9,27.5-3.6,31.2-14.6c1.5-4.7,0.5-10.3,1.1-22C59.9,8.2,59.8,7.2,60.8,6z"/>
<path class="st7" d="M63.8,104.3H1.1"/>
<path class="st7" d="M63.8,80.7H1.1"/>
<path class="st7" d="M63.8,64.8H1.1"/>
<path class="st7" d="M64,54.1H1.2"/>
<path class="st7" d="M63.8,36.3H1.1"/>
<path class="st7" d="M63.8,12.7H1.1"/>
<path class="st7" d="M64,104.9V2.3"/>
</svg>
